<svg width="24" height="24" viewBox="0 0 24 24" fill="none" xmlns="http://www.w3.org/2000/svg">
<g id="Wrapper">
<path id="Shape" fill-rule="evenodd" clip-rule="evenodd" d="M20.208 12.1943C20.208 11.5881 20.1536 11.0051 20.0525 10.4455H12V13.7528H16.6015C16.4032 14.8215 15.8009 15.727 14.8953 16.3333V18.4786H17.6585C19.2753 16.9901 20.208 14.7982 20.208 12.1943Z" fill="#4285F4"/>
<path id="Shape_2" fill-rule="evenodd" clip-rule="evenodd" d="M12 20.55C14.3085 20.55 16.2439 19.7844 17.6585 18.4786L14.8953 16.3333C14.1297 16.8463 13.1503 17.1494 12 17.1494C9.77308 17.1494 7.88819 15.6454 7.21585 13.6245H4.35938V15.8397C5.76624 18.634 8.65769 20.55 12 20.55Z" fill="#34A853"/>
<path id="Shape_3" fill-rule="evenodd" clip-rule="evenodd" d="M7.21584 13.6245C7.04484 13.1115 6.94768 12.5635 6.94768 12C6.94768 11.4365 7.04484 10.8885 7.21584 10.3755V8.16028H4.35936C3.78029 9.31453 3.44995 10.6203 3.44995 12C3.44995 13.3797 3.78029 14.6855 4.35936 15.8397L7.21584 13.6245Z" fill="#FBBC05"/>
<path id="Shape_4" fill-rule="evenodd" clip-rule="evenodd" d="M12 6.85058C13.2553 6.85058 14.3823 7.28197 15.2684 8.12919L17.7207 5.6769C16.24 4.29724 14.3046 3.45001 12 3.45001C8.65769 3.45001 5.76624 5.36599 4.35938 8.16028L7.21585 10.3755C7.88819 8.3546 9.77308 6.85058 12 6.85058Z" fill="#EA4335"/>
</g>
</svg>
