<svg width="123" height="109" viewBox="0 0 123 109" fill="none" xmlns="http://www.w3.org/2000/svg">
<path d="M13.4531 48.5324C12.3899 48.5324 11.5312 47.7707 11.5312 46.8293C11.5312 44.9507 9.80738 43.423 7.6875 43.423C5.56762 43.423 3.84375 44.9507 3.84375 46.8293C3.84375 47.7707 2.9851 48.5324 1.92188 48.5324C0.85865 48.5324 0 47.7707 0 46.8293C0 43.0721 3.44774 40.0168 7.6875 40.0168C11.9273 40.0168 15.375 43.0721 15.375 46.8293C15.375 47.7707 14.5163 48.5324 13.4531 48.5324Z" fill="#1F2F58"/>
<path d="M7.6875 79.1745C3.44774 79.1745 0 76.1192 0 72.362C0 71.4207 0.85865 70.6589 1.92188 70.6589C2.9851 70.6589 3.84375 71.4207 3.84375 72.362C3.84375 74.2406 5.56762 75.7683 7.6875 75.7683C8.75072 75.7683 9.60938 76.53 9.60938 77.4714C9.60938 78.4136 8.75072 79.1745 7.6875 79.1745Z" fill="#1F2F58"/>
<path d="M1.92188 74.0651C0.85865 74.0651 0 73.3042 0 72.362V46.8293C0 45.8871 0.85865 45.1262 1.92188 45.1262C2.9851 45.1262 3.84375 45.8871 3.84375 46.8293V72.362C3.84375 73.3042 2.9851 74.0651 1.92188 74.0651Z" fill="#1F2F58"/>
<path d="M121.078 48.5324C120.015 48.5324 119.156 47.7707 119.156 46.8293C119.156 44.9507 117.432 43.423 115.312 43.423C113.193 43.423 111.469 44.9507 111.469 46.8293C111.469 47.7707 110.61 48.5324 109.547 48.5324C108.484 48.5324 107.625 47.7707 107.625 46.8293C107.625 43.0721 111.073 40.0168 115.312 40.0168C119.552 40.0168 123 43.0721 123 46.8293C123 47.7707 122.141 48.5324 121.078 48.5324Z" fill="#1F2F58"/>
<path d="M115.312 79.1745C114.249 79.1745 113.391 78.4136 113.391 77.4714C113.391 76.53 114.249 75.7683 115.312 75.7683C117.432 75.7683 119.156 74.2406 119.156 72.362C119.156 71.4207 120.015 70.6589 121.078 70.6589C122.141 70.6589 123 71.4207 123 72.362C123 76.1192 119.552 79.1745 115.312 79.1745Z" fill="#1F2F58"/>
<path d="M121.078 74.0651C120.015 74.0651 119.156 73.3042 119.156 72.362V46.8293C119.156 45.8871 120.015 45.1262 121.078 45.1262C122.141 45.1262 123 45.8871 123 46.8293V72.362C123 73.3042 122.141 74.0651 121.078 74.0651Z" fill="#1F2F58"/>
<path d="M115.312 79.1745H7.6875C6.62428 79.1745 5.76562 78.4136 5.76562 77.4714C5.76562 76.53 6.62428 75.7683 7.6875 75.7683H115.312C116.376 75.7683 117.234 76.53 117.234 77.4714C117.234 78.4136 116.376 79.1745 115.312 79.1745Z" fill="#1F2F58"/>
<path d="M109.547 85.9945C108.484 85.9945 107.625 85.2328 107.625 84.2914V46.8293C107.625 45.8871 108.484 45.1262 109.547 45.1262C110.61 45.1262 111.469 45.8871 111.469 46.8293V84.2914C111.469 85.2328 110.61 85.9945 109.547 85.9945Z" fill="#1F2F58"/>
<path d="M13.4531 85.9912C12.3899 85.9912 11.5312 85.2294 11.5312 84.2881V46.826C11.5312 45.8838 12.3899 45.1228 13.4531 45.1228C14.5163 45.1228 15.375 45.8838 15.375 46.826V84.2881C15.375 85.2294 14.5163 85.9912 13.4531 85.9912Z" fill="#1F2F58"/>
<path d="M13.4531 63.8464C12.3899 63.8464 11.5312 63.0855 11.5312 62.1433C11.5312 58.3869 14.979 55.3308 19.2188 55.3308C20.282 55.3308 21.1406 56.0925 21.1406 57.0339C21.1406 57.9761 20.282 58.737 19.2188 58.737C17.0989 58.737 15.375 60.2647 15.375 62.1433C15.375 63.0855 14.5163 63.8464 13.4531 63.8464Z" fill="#1F2F58"/>
<path d="M7.6875 31.5078C6.62428 31.5078 5.76562 30.7469 5.76562 29.8047C5.76562 26.0475 9.21336 22.9922 13.4531 22.9922C14.5163 22.9922 15.375 23.7531 15.375 24.6953C15.375 25.6375 14.5163 26.3984 13.4531 26.3984C11.3332 26.3984 9.60938 27.9261 9.60938 29.8047C9.60938 30.7469 8.75072 31.5078 7.6875 31.5078Z" fill="#1F2F58"/>
<path d="M115.316 31.5078C114.254 31.5078 113.394 30.7469 113.394 29.8047C113.394 27.9261 111.671 26.3984 109.551 26.3984C108.488 26.3984 107.629 25.6375 107.629 24.6953C107.629 23.7531 108.488 22.9922 109.551 22.9922C113.79 22.9922 117.238 26.0475 117.238 29.8047C117.238 30.7469 116.38 31.5078 115.316 31.5078Z" fill="#1F2F58"/>
<path d="M61.5 31.5078C60.4368 31.5078 59.5781 30.7469 59.5781 29.8047C59.5781 26.0475 63.0259 22.9922 67.2656 22.9922C68.3288 22.9922 69.1875 23.7531 69.1875 24.6953C69.1875 25.6375 68.3288 26.3984 67.2656 26.3984C65.1457 26.3984 63.4219 27.9261 63.4219 29.8047C63.4219 30.7469 62.5632 31.5078 61.5 31.5078Z" fill="#1F2F58"/>
<path d="M61.5 31.5078C60.4368 31.5078 59.5781 30.7469 59.5781 29.8047C59.5781 27.9261 57.8543 26.3984 55.7344 26.3984C54.6712 26.3984 53.8125 25.6375 53.8125 24.6953C53.8125 23.7531 54.6712 22.9922 55.7344 22.9922C59.9741 22.9922 63.4219 26.0475 63.4219 29.8047C63.4219 30.7469 62.5632 31.5078 61.5 31.5078Z" fill="#1F2F58"/>
<path d="M109.547 63.8464C108.484 63.8464 107.625 63.0855 107.625 62.1433C107.625 60.2647 105.901 58.737 103.781 58.737C102.718 58.737 101.859 57.9761 101.859 57.0339C101.859 56.0925 102.718 55.3308 103.781 55.3308C108.021 55.3308 111.469 58.3869 111.469 62.1433C111.469 63.0855 110.61 63.8464 109.547 63.8464Z" fill="#1F2F58"/>
<path d="M103.798 58.737H19.2188C18.1555 58.737 17.2969 57.9761 17.2969 57.0339C17.2969 56.0925 18.1555 55.3308 19.2188 55.3308H103.798C104.861 55.3308 105.72 56.0925 105.72 57.0339C105.72 57.9761 104.861 58.737 103.798 58.737Z" fill="#1F2F58"/>
<path d="M109.547 70.6589H13.4531C12.3899 70.6589 11.5312 69.898 11.5312 68.9558C11.5312 68.0144 12.3899 67.2527 13.4531 67.2527H109.547C110.61 67.2527 111.469 68.0144 111.469 68.9558C111.469 69.898 110.61 70.6589 109.547 70.6589Z" fill="#1F2F58"/>
<path d="M7.6875 43.423C6.62428 43.423 5.76562 42.6613 5.76562 41.7199V29.8047C5.76562 28.8625 6.62428 28.1016 7.6875 28.1016C8.75072 28.1016 9.60938 28.8625 9.60938 29.8047V41.7199C9.60938 42.6613 8.75072 43.423 7.6875 43.423Z" fill="#1F2F58"/>
<path d="M115.312 43.423C114.249 43.423 113.391 42.6596 113.391 41.7199L113.394 29.8047C113.394 28.8625 114.256 28.1016 115.316 28.1016C116.379 28.1016 117.238 28.865 117.238 29.8047L117.234 41.7199C117.234 42.6613 116.373 43.423 115.312 43.423Z" fill="#1F2F58"/>
<path d="M55.7034 26.3984H13.4531C12.3899 26.3984 11.5312 25.6375 11.5312 24.6953C11.5312 23.7531 12.3899 22.9922 13.4531 22.9922H55.7034C56.7666 22.9922 57.6253 23.7531 57.6253 24.6953C57.6253 25.6375 56.7666 26.3984 55.7034 26.3984Z" fill="#1F2F58"/>
<path d="M109.551 26.3984H67.2346C66.1723 26.3984 65.3127 25.6375 65.3127 24.6953C65.3127 23.7531 66.1723 22.9922 67.2346 22.9922H109.551C110.614 22.9922 111.472 23.7531 111.472 24.6953C111.472 25.6375 110.614 26.3984 109.551 26.3984Z" fill="#1F2F58"/>
<path d="M61.5 58.737C60.4368 58.737 59.5781 57.9761 59.5781 57.0339V29.8047C59.5781 28.8625 60.4368 28.1016 61.5 28.1016C62.5632 28.1016 63.4219 28.8625 63.4219 29.8047V57.0339C63.4219 57.9761 62.5632 58.737 61.5 58.737Z" fill="#1F2F58"/>
<path d="M99.9281 85.9945C98.8649 85.9945 98.0062 85.2328 98.0062 84.2914V77.4714C98.0062 76.53 98.8649 75.7683 99.9281 75.7683C100.99 75.7683 101.85 76.53 101.85 77.4714V84.2914C101.85 85.2328 100.99 85.9945 99.9281 85.9945Z" fill="#1F2F58"/>
<path d="M109.547 85.9945H99.9281C98.8649 85.9945 98.0062 85.2328 98.0062 84.2914C98.0062 83.3492 98.8649 82.5883 99.9281 82.5883H109.547C110.61 82.5883 111.469 83.3492 111.469 84.2914C111.469 85.2328 110.61 85.9945 109.547 85.9945Z" fill="#1F2F58"/>
<path d="M23.0701 85.9945C22.0078 85.9945 21.1482 85.2328 21.1482 84.2914V77.4714C21.1482 76.53 22.0078 75.7683 23.0701 75.7683C24.1333 75.7683 24.9919 76.53 24.9919 77.4714V84.2914C24.9919 85.2328 24.1333 85.9945 23.0701 85.9945Z" fill="#1F2F58"/>
<path d="M26.17 47.65C31.65 47.95 35.36 48.1 37.3 48.1C37.76 48.1 38.12 47.97 38.38 47.71C38.66 47.43 38.8 47.06 38.8 46.6V43.9H31.9C29.8 43.9 28.27 43.43 27.31 42.49C26.37 41.53 25.9 40 25.9 37.9V37C25.9 34.9 26.37 33.38 27.31 32.44C28.27 31.48 29.8 31 31.9 31H42.43V35.2H33.1C31.9 35.2 31.3 35.8 31.3 37V37.6C31.3 38.8 31.9 39.4 33.1 39.4H38.5C40.46 39.4 41.9 39.86 42.82 40.78C43.74 41.7 44.2 43.14 44.2 45.1V46.6C44.2 48.56 43.74 50 42.82 50.92C41.9 51.84 40.46 52.3 38.5 52.3C37.48 52.3 36.4 52.28 35.26 52.24L32.5 52.12C30.46 52.02 28.35 51.88 26.17 51.7V47.65Z" fill="#1F2F58"/>
<path d="M92.8 40.3L88.6 47.8H84.4L80.2 40.3V52H74.8V31H80.5L86.5 42.1L92.5 31H98.2V52H92.8V40.3Z" fill="#1F2F58"/>
<path d="M23.0701 85.9945H13.4513C12.3881 85.9945 11.5294 85.2328 11.5294 84.2914C11.5294 83.3492 12.3881 82.5883 13.4513 82.5883H23.0701C24.1333 82.5883 24.9919 83.3492 24.9919 84.2914C24.9919 85.2328 24.1333 85.9945 23.0701 85.9945Z" fill="#1F2F58"/>
</svg>
